<svg width="228" height="33" viewBox="0 0 228 33" fill="none" xmlns="http://www.w3.org/2000/svg">
<path d="M6.90264 32H0.827637V0.499998H13.6526C19.0076 0.499998 23.2376 4.64 23.2376 9.905C23.2376 13.73 20.8526 16.97 17.4776 18.365L25.3076 32H18.4676L11.3126 19.13H6.90264V32ZM12.6626 5.81H6.90264V14.045H12.6626C15.3626 14.045 17.1176 12.245 17.1176 9.905C17.1176 7.565 15.3626 5.81 12.6626 5.81ZM25.237 20.345C25.237 13.865 30.412 8.195 37.297 8.195C44.272 8.195 49.222 13.37 49.222 20.615V22.325H31.267C32.032 25.34 34.552 27.545 37.792 27.545C40.267 27.545 42.202 26.69 43.912 24.485L48.007 27.545C45.667 30.74 42.157 32.585 37.837 32.585C30.727 32.585 25.237 27.455 25.237 20.345ZM37.162 13.235C34.417 13.235 32.167 14.99 31.357 17.825H43.282C42.427 14.945 39.997 13.235 37.162 13.235ZM73.9671 17.195V32H68.0721V18.365C68.0721 15.35 66.1371 13.37 63.2571 13.37C60.4221 13.37 58.3971 15.26 58.3971 18.365V32H52.5021V8.735H58.3971V10.715C60.0171 9.05 62.2671 8.105 64.7871 8.105C70.2321 8.105 73.9671 12.11 73.9671 17.195ZM86.9548 32C82.7248 32 80.5648 29.48 80.5648 26.15V13.82H76.0198V8.735H80.5648V1.985H86.4148V8.735H91.5448V13.82H86.4148V25.115C86.4148 26.33 87.2698 26.915 88.6198 26.915H91.5448V32H86.9548ZM92.5204 21.02V16.07H108.81V21.02H92.5204ZM111.189 25.475C111.189 21.29 114.024 18.905 118.974 18.545L125.814 18.05V17.15C125.814 14.855 124.284 13.46 121.539 13.46C119.424 13.46 117.444 14.135 115.374 15.53L112.899 11.345C115.599 9.365 118.704 8.24 122.259 8.24C127.839 8.24 131.529 11.48 131.529 16.43V25.565C131.529 26.42 131.979 26.915 132.834 26.915H134.049V32H131.304C129.054 32 127.344 30.965 126.534 29.255C124.914 31.325 122.349 32.585 119.244 32.585C114.609 32.585 111.189 29.57 111.189 25.475ZM116.814 25.43C116.814 27.05 118.344 28.085 120.549 28.085C123.474 28.085 125.814 26.195 125.814 23.855V22.37L119.784 22.91C117.804 23.09 116.814 23.9 116.814 25.43ZM136.07 21.02V16.07H152.36V21.02H136.07ZM175.844 26.69V32H155.999V0.499998H162.074V26.69H175.844ZM202.233 20.39C202.233 27.14 196.518 32.63 189.453 32.63C182.433 32.63 176.673 27.14 176.673 20.39C176.673 13.64 182.433 8.15 189.453 8.15C196.518 8.15 202.233 13.595 202.233 20.39ZM196.383 20.39C196.383 16.475 193.323 13.37 189.453 13.37C185.628 13.37 182.523 16.475 182.523 20.39C182.523 24.305 185.628 27.41 189.453 27.41C193.323 27.41 196.383 24.305 196.383 20.39ZM214.396 32C210.166 32 208.006 29.48 208.006 26.15V13.82H203.461V8.735H208.006V1.985H213.856V8.735H218.986V13.82H213.856V25.115C213.856 26.33 214.711 26.915 216.061 26.915H218.986V32H214.396ZM224.441 25.7C226.331 25.7 227.861 27.185 227.861 29.075C227.861 30.965 226.331 32.45 224.441 32.45C222.551 32.45 221.021 30.965 221.021 29.075C221.021 27.185 222.551 25.7 224.441 25.7Z" fill="url(#paint0_linear_102_2761)"/>
<defs>
<linearGradient id="paint0_linear_102_2761" x1="75.9182" y1="-37" x2="100.295" y2="85.2009" gradientUnits="userSpaceOnUse">
<stop stop-color="#BB77FF"/>
<stop offset="0.510417" stop-color="#77A5FF"/>
<stop offset="1" stop-color="#77FFC6"/>
</linearGradient>
</defs>
</svg>
