<svg width="236" height="74" viewBox="0 0 236 74" fill="none" xmlns="http://www.w3.org/2000/svg">
<path d="M10.9026 34H4.82764V2.5H17.6526C23.0076 2.5 27.2376 6.64 27.2376 11.905C27.2376 15.73 24.8526 18.97 21.4776 20.365L29.3076 34H22.4676L15.3126 21.13H10.9026V34ZM16.6626 7.81H10.9026V16.045H16.6626C19.3626 16.045 21.1176 14.245 21.1176 11.905C21.1176 9.565 19.3626 7.81 16.6626 7.81ZM29.237 22.345C29.237 15.865 34.412 10.195 41.297 10.195C48.272 10.195 53.222 15.37 53.222 22.615V24.325H35.267C36.032 27.34 38.552 29.545 41.792 29.545C44.267 29.545 46.202 28.69 47.912 26.485L52.007 29.545C49.667 32.74 46.157 34.585 41.837 34.585C34.727 34.585 29.237 29.455 29.237 22.345ZM41.162 15.235C38.417 15.235 36.167 16.99 35.357 19.825H47.282C46.427 16.945 43.997 15.235 41.162 15.235ZM77.9671 19.195V34H72.0721V20.365C72.0721 17.35 70.1371 15.37 67.2571 15.37C64.4221 15.37 62.3971 17.26 62.3971 20.365V34H56.5021V10.735H62.3971V12.715C64.0171 11.05 66.2671 10.105 68.7871 10.105C74.2321 10.105 77.9671 14.11 77.9671 19.195ZM90.9548 34C86.7248 34 84.5648 31.48 84.5648 28.15V15.82H80.0198V10.735H84.5648V3.985H90.4148V10.735H95.5448V15.82H90.4148V27.115C90.4148 28.33 91.2698 28.915 92.6198 28.915H95.5448V34H90.9548ZM96.5204 23.02V18.07H112.81V23.02H96.5204ZM115.189 27.475C115.189 23.29 118.024 20.905 122.974 20.545L129.814 20.05V19.15C129.814 16.855 128.284 15.46 125.539 15.46C123.424 15.46 121.444 16.135 119.374 17.53L116.899 13.345C119.599 11.365 122.704 10.24 126.259 10.24C131.839 10.24 135.529 13.48 135.529 18.43V27.565C135.529 28.42 135.979 28.915 136.834 28.915H138.049V34H135.304C133.054 34 131.344 32.965 130.534 31.255C128.914 33.325 126.349 34.585 123.244 34.585C118.609 34.585 115.189 31.57 115.189 27.475ZM120.814 27.43C120.814 29.05 122.344 30.085 124.549 30.085C127.474 30.085 129.814 28.195 129.814 25.855V24.37L123.784 24.91C121.804 25.09 120.814 25.9 120.814 27.43ZM140.07 23.02V18.07H156.36V23.02H140.07ZM179.844 28.69V34H159.999V2.5H166.074V28.69H179.844ZM206.233 22.39C206.233 29.14 200.518 34.63 193.453 34.63C186.433 34.63 180.673 29.14 180.673 22.39C180.673 15.64 186.433 10.15 193.453 10.15C200.518 10.15 206.233 15.595 206.233 22.39ZM200.383 22.39C200.383 18.475 197.323 15.37 193.453 15.37C189.628 15.37 186.523 18.475 186.523 22.39C186.523 26.305 189.628 29.41 193.453 29.41C197.323 29.41 200.383 26.305 200.383 22.39ZM218.396 34C214.166 34 212.006 31.48 212.006 28.15V15.82H207.461V10.735H212.006V3.985H217.856V10.735H222.986V15.82H217.856V27.115C217.856 28.33 218.711 28.915 220.061 28.915H222.986V34H218.396ZM228.441 27.7C230.331 27.7 231.861 29.185 231.861 31.075C231.861 32.965 230.331 34.45 228.441 34.45C226.551 34.45 225.021 32.965 225.021 31.075C225.021 29.185 226.551 27.7 228.441 27.7Z" fill="url(#paint0_linear_102_2585)"/>
<path d="M53.1704 71H50.1404V50H54.6104L61.4504 67.01L68.3204 50H72.7304V71H69.6704L69.7004 54.02L62.8304 71H59.9804L53.1104 54.05L53.1704 71ZM75.0244 66.77C75.0244 64.1 76.8544 62.51 80.0344 62.3L84.8044 61.94V60.95C84.8044 59.21 83.6644 58.16 81.6544 58.16C80.1844 58.16 78.8344 58.61 77.5444 59.63L76.1944 57.44C77.7844 56.09 79.7944 55.43 82.0744 55.43C85.5244 55.43 87.7744 57.44 87.7744 60.56V67.46C87.7744 68.03 88.0744 68.33 88.6744 68.33H89.4544V71H87.9544C86.4844 71 85.4044 70.28 85.0144 69.08C83.9944 70.49 82.2844 71.33 80.2444 71.33C77.2444 71.33 75.0244 69.44 75.0244 66.77ZM77.9344 66.74C77.9344 68.06 79.1344 68.96 80.8444 68.96C83.0344 68.96 84.8044 67.43 84.8044 65.51V64.25L80.4844 64.61C78.8044 64.73 77.9344 65.48 77.9344 66.74ZM91.3889 50H94.4189V62.45L100.599 55.7H104.199L97.2389 63.08L104.559 71H100.749L94.4189 63.98V71H91.3889V50ZM103.446 63.35C103.446 59.03 106.836 55.4 111.306 55.4C115.716 55.4 118.956 58.79 118.956 63.35V64.34H106.506C106.926 66.83 108.996 68.69 111.576 68.69C113.346 68.69 114.846 67.97 115.986 66.44L118.176 68.06C116.646 70.1 114.366 71.33 111.576 71.33C106.986 71.33 103.446 67.91 103.446 63.35ZM111.246 58.04C108.996 58.04 107.106 59.6 106.566 61.94H115.896C115.386 59.6 113.496 58.04 111.246 58.04ZM126.616 66.77C126.616 64.1 128.446 62.51 131.626 62.3L136.396 61.94V60.95C136.396 59.21 135.256 58.16 133.246 58.16C131.776 58.16 130.426 58.61 129.136 59.63L127.786 57.44C129.376 56.09 131.386 55.43 133.666 55.43C137.116 55.43 139.366 57.44 139.366 60.56V67.46C139.366 68.03 139.666 68.33 140.266 68.33H141.046V71H139.546C138.076 71 136.996 70.28 136.606 69.08C135.586 70.49 133.876 71.33 131.836 71.33C128.836 71.33 126.616 69.44 126.616 66.77ZM129.526 66.74C129.526 68.06 130.726 68.96 132.436 68.96C134.626 68.96 136.396 67.43 136.396 65.51V64.25L132.076 64.61C130.396 64.73 129.526 65.48 129.526 66.74ZM152.017 71H148.987V50H152.017V71ZM170.833 63.35C170.833 67.76 167.173 71.36 162.613 71.36C158.053 71.36 154.393 67.76 154.393 63.35C154.393 58.94 158.053 55.37 162.613 55.37C167.173 55.37 170.833 58.94 170.833 63.35ZM167.803 63.35C167.803 60.41 165.493 58.07 162.613 58.07C159.733 58.07 157.423 60.41 157.423 63.35C157.423 66.32 159.733 68.66 162.613 68.66C165.493 68.66 167.803 66.32 167.803 63.35ZM178.264 71C175.924 71 174.634 69.62 174.634 67.7V58.37H171.724V55.7H174.634V51.2H177.664V55.7H181.174V58.37H177.664V67.04C177.664 67.88 178.234 68.33 179.164 68.33H181.174V71H178.264ZM184.47 67.58C185.52 67.58 186.33 68.42 186.33 69.44C186.33 70.49 185.52 71.3 184.47 71.3C183.45 71.3 182.61 70.49 182.61 69.44C182.61 68.42 183.45 67.58 184.47 67.58Z" fill="#222222"/>
<defs>
<linearGradient id="paint0_linear_102_2585" x1="79.9182" y1="-35" x2="104.295" y2="87.2009" gradientUnits="userSpaceOnUse">
<stop stop-color="#BB77FF"/>
<stop offset="0.510417" stop-color="#77A5FF"/>
<stop offset="1" stop-color="#77FFC6"/>
</linearGradient>
</defs>
</svg>
